<svg width="192" height="40" viewBox="0 0 192 40" fill="none" xmlns="http://www.w3.org/2000/svg">
<circle cx="20" cy="20" r="20" fill="#00796B"/>
<path d="M56.064 30L48.448 10.232H53.152L58.948 26.22H57.016L62.896 10.232H67.544L59.844 30H56.064ZM73.0992 30.308C71.6992 30.308 70.4298 30 69.2912 29.384C68.1712 28.7493 67.2845 27.8907 66.6312 26.808C65.9778 25.7253 65.6512 24.512 65.6512 23.168C65.6512 21.824 65.9778 20.62 66.6312 19.556C67.2845 18.492 68.1712 17.652 69.2912 17.036C70.4112 16.4013 71.6805 16.084 73.0992 16.084C74.5178 16.084 75.7872 16.392 76.9072 17.008C78.0272 17.624 78.9138 18.4733 79.5672 19.556C80.2205 20.62 80.5472 21.824 80.5472 23.168C80.5472 24.512 80.2205 25.7253 79.5672 26.808C78.9138 27.8907 78.0272 28.7493 76.9072 29.384C75.7872 30 74.5178 30.308 73.0992 30.308ZM73.0992 26.416C73.7152 26.416 74.2565 26.2853 74.7232 26.024C75.1898 25.744 75.5445 25.3613 75.7872 24.876C76.0485 24.372 76.1792 23.8027 76.1792 23.168C76.1792 22.5333 76.0485 21.9827 75.7872 21.516C75.5258 21.0307 75.1618 20.6573 74.6952 20.396C74.2472 20.116 73.7152 19.976 73.0992 19.976C72.5018 19.976 71.9698 20.116 71.5032 20.396C71.0365 20.6573 70.6725 21.0307 70.4112 21.516C70.1498 22.0013 70.0192 22.5613 70.0192 23.196C70.0192 23.812 70.1498 24.372 70.4112 24.876C70.6725 25.3613 71.0365 25.744 71.5032 26.024C71.9698 26.2853 72.5018 26.416 73.0992 26.416ZM89.26 30.308C87.86 30.308 86.5906 30 85.452 29.384C84.3133 28.768 83.4173 27.9187 82.764 26.836C82.1106 25.7533 81.784 24.54 81.784 23.196C81.784 21.8333 82.1106 20.62 82.764 19.556C83.436 18.4733 84.3413 17.624 85.48 17.008C86.6186 16.392 87.8973 16.084 89.316 16.084C90.38 16.084 91.3506 16.2707 92.228 16.644C93.124 16.9987 93.9173 17.54 94.608 18.268L91.864 21.012C91.5466 20.6573 91.1733 20.396 90.744 20.228C90.3333 20.06 89.8573 19.976 89.316 19.976C88.7 19.976 88.1493 20.116 87.664 20.396C87.1973 20.6573 86.824 21.0307 86.544 21.516C86.2826 21.9827 86.152 22.5333 86.152 23.168C86.152 23.8027 86.2826 24.3627 86.544 24.848C86.824 25.3333 87.2066 25.716 87.692 25.996C88.1773 26.276 88.7186 26.416 89.316 26.416C89.876 26.416 90.3706 26.3227 90.8 26.136C91.248 25.9307 91.6306 25.6507 91.948 25.296L94.664 28.04C93.9546 28.7867 93.152 29.356 92.256 29.748C91.36 30.1213 90.3613 30.308 89.26 30.308ZM102.794 30.308C101.394 30.308 100.125 30 98.9865 29.384C97.8665 28.7493 96.9798 27.8907 96.3265 26.808C95.6731 25.7253 95.3465 24.512 95.3465 23.168C95.3465 21.824 95.6731 20.62 96.3265 19.556C96.9798 18.492 97.8665 17.652 98.9865 17.036C100.106 16.4013 101.376 16.084 102.794 16.084C104.213 16.084 105.482 16.392 106.602 17.008C107.722 17.624 108.609 18.4733 109.262 19.556C109.916 20.62 110.242 21.824 110.242 23.168C110.242 24.512 109.916 25.7253 109.262 26.808C108.609 27.8907 107.722 28.7493 106.602 29.384C105.482 30 104.213 30.308 102.794 30.308ZM102.794 26.416C103.41 26.416 103.952 26.2853 104.418 26.024C104.885 25.744 105.24 25.3613 105.482 24.876C105.744 24.372 105.874 23.8027 105.874 23.168C105.874 22.5333 105.744 21.9827 105.482 21.516C105.221 21.0307 104.857 20.6573 104.39 20.396C103.942 20.116 103.41 19.976 102.794 19.976C102.197 19.976 101.665 20.116 101.198 20.396C100.732 20.6573 100.368 21.0307 100.106 21.516C99.8451 22.0013 99.7145 22.5613 99.7145 23.196C99.7145 23.812 99.8451 24.372 100.106 24.876C100.368 25.3613 100.732 25.744 101.198 26.024C101.665 26.2853 102.197 26.416 102.794 26.416ZM116.127 22.804V19.388H120.383C120.925 19.388 121.419 19.276 121.867 19.052C122.315 18.828 122.67 18.5013 122.931 18.072C123.193 17.6427 123.323 17.12 123.323 16.504C123.323 15.9067 123.193 15.3933 122.931 14.964C122.67 14.5347 122.315 14.208 121.867 13.984C121.419 13.76 120.925 13.648 120.383 13.648H116.127V10.232H121.027C122.278 10.232 123.407 10.484 124.415 10.988C125.423 11.492 126.217 12.22 126.795 13.172C127.393 14.1053 127.691 15.216 127.691 16.504C127.691 17.792 127.393 18.912 126.795 19.864C126.217 20.7973 125.423 21.5253 124.415 22.048C123.407 22.552 122.278 22.804 121.027 22.804H116.127ZM112.767 30V10.232H117.163V30H112.767ZM135.067 30.28C133.816 30.28 132.696 29.972 131.707 29.356C130.736 28.74 129.962 27.9 129.383 26.836C128.823 25.772 128.543 24.5587 128.543 23.196C128.543 21.8333 128.823 20.62 129.383 19.556C129.962 18.492 130.736 17.652 131.707 17.036C132.696 16.42 133.816 16.112 135.067 16.112C135.982 16.112 136.803 16.2893 137.531 16.644C138.278 16.9987 138.884 17.4933 139.351 18.128C139.818 18.744 140.079 19.4533 140.135 20.256V26.136C140.079 26.9387 139.818 27.6573 139.351 28.292C138.903 28.908 138.306 29.3933 137.559 29.748C136.812 30.1027 135.982 30.28 135.067 30.28ZM135.935 26.416C136.85 26.416 137.587 26.1173 138.147 25.52C138.707 24.904 138.987 24.1293 138.987 23.196C138.987 22.5613 138.856 22.0013 138.595 21.516C138.352 21.0307 137.998 20.6573 137.531 20.396C137.083 20.116 136.56 19.976 135.963 19.976C135.366 19.976 134.834 20.116 134.367 20.396C133.919 20.6573 133.555 21.0307 133.275 21.516C133.014 22.0013 132.883 22.5613 132.883 23.196C132.883 23.812 133.014 24.3627 133.275 24.848C133.536 25.3333 133.9 25.716 134.367 25.996C134.834 26.276 135.356 26.416 135.935 26.416ZM138.819 30V26.332L139.463 23.028L138.819 19.724V16.392H143.019V30H138.819ZM146.035 30V9.672H150.319V30H146.035Z" fill="#00796B"/>
<circle cx="20" cy="20" r="20" fill="#00796B"/>
<mask id="mask0_448_1633" style="mask-type:alpha" maskUnits="userSpaceOnUse" x="0" y="0" width="40" height="40">
<path d="M40 20C40 31.0457 31.0457 40 20 40C8.9543 40 0 31.0457 0 20C0 8.9543 8.9543 0 20 0C31.0457 0 40 8.9543 40 20Z" fill="#01366A"/>
</mask>
<g mask="url(#mask0_448_1633)">
<path d="M-2.00001 26.0002C3.58209 26.0002 7.19739 20.0385 8.99999 18.0001C12.5373 14.0001 13.9832 31.6565 17 33.5001C20.0168 35.3437 23.5 11.5001 32 7.5001C36.3732 5.44215 41.1667 12.6668 42 14.0001" stroke="white" stroke-width="1.86047"/>
</g>
</svg>
